<svg width="12" height="12" viewBox="0 0 12 12" fill="none" xmlns="http://www.w3.org/2000/svg">
<path d="M0.75 6.1359C0.75 4.92381 1.2996 3.7771 2.24444 3.01786L3.49444 2.0134C4.95784 0.837446 7.04216 0.837448 8.50556 2.0134L9.75557 3.01787C10.7004 3.77711 11.25 4.92381 11.25 6.1359V8.37632C11.25 9.96341 9.96341 11.25 8.37632 11.25V11.25C7.97954 11.25 7.65789 10.9284 7.65789 10.5316V9.53289C7.65789 8.61726 6.91563 7.875 6 7.875V7.875C5.08437 7.875 4.34211 8.61726 4.34211 9.53289V10.5316C4.34211 10.9284 4.02046 11.25 3.62368 11.25V11.25C2.03659 11.25 0.75 9.96341 0.75 8.37632L0.75 6.1359Z" stroke="#9C9FA9" stroke-width="1.5"/>
</svg>
