<svg width="24" height="24" viewBox="0 0 24 24" fill="none" xmlns="http://www.w3.org/2000/svg">
<path d="M9 7C9 6.20435 8.68393 5.44129 8.12132 4.87868C7.55871 4.31607 6.79565 4 6 4C5.20435 4 4.44129 4.31607 3.87868 4.87868C3.31607 5.44129 3 6.20435 3 7C3 7.79565 3.31607 8.55871 3.87868 9.12132C4.44129 9.68393 5.20435 10 6 10C6.79565 10 7.55871 9.68393 8.12132 9.12132C8.68393 8.55871 9 7.79565 9 7ZM9 7V20H19V7M19 7C19 6.20435 18.6839 5.44129 18.1213 4.87868C17.5587 4.31607 16.7956 4 16 4C15.2044 4 14.4413 4.31607 13.8787 4.87868C13.3161 5.44129 13 6.20435 13 7C13 7.79565 13.3161 8.55871 13.8787 9.12132C14.4413 9.68393 15.2044 10 16 10C16.7956 10 17.5587 9.68393 18.1213 9.12132C18.6839 8.55871 19 7.79565 19 7ZM9 16H19" stroke="#354052" stroke-width="1.5" stroke-linecap="round" stroke-linejoin="round"/>
</svg>